<svg width="110" height="110" viewBox="0 0 110 110" fill="none" xmlns="http://www.w3.org/2000/svg">
  <circle cx="55" cy="55" r="55" fill="#FBF8E5"/>
  <path fill-rule="evenodd" clip-rule="evenodd" d="M78.9866 54.0279C82.1689 49.3321 84.2491 43.4614 85 36.6999C85 20.2971 71.5685 7 55 7C38.4315 7 25 20.2971 25 36.6999C25.8501 43.9451 28.404 50.3969 32.3321 55.4207L32.5 55.6737L54.9449 87L78 55.6737L78.9866 54.0279Z" fill="#FE1004"/>
  <path fill-rule="evenodd" clip-rule="evenodd" d="M70.1914 53.859C72.2069 50.2784 73.5244 45.8019 74 40.6462C74 28.139 65.4934 18 55 18C44.5066 18 36 28.139 36 40.6462C36.5384 46.1704 38.1557 51.0897 40.6433 54.9203L40.75 55.1137L54.9651 79L69.5666 55.1137L70.1914 53.859Z" fill="#FBF8E5"/>
  <path d="M65 48C65 53.5228 60.5228 58 55 58C49.4772 58 45 53.5228 45 48C45 42.4772 49.4772 38 55 38C60.5228 38 65 42.4772 65 48Z" fill="#161C37"/>
  <!-- <ellipse cx="54.5" cy="101" rx="5.5" ry="5" fill="#FE1004"/> -->
  <path d="M93 53.5C93 64.1087 89.0491 74.2828 82.0165 81.7843C74.9839 89.2857 65.4456 93.5 55.5 93.5C45.5544 93.5 36.0161 89.2857 28.9835 81.7843C21.9509 74.2828 18 64.1087 18 53.5V48C18 57.2832 26.1427 71.6861 32.2966 78.2503C38.4505 84.8145 46.797 88.5022 55.5 88.5022C64.203 88.5022 72.5495 84.8144 78.7034 78.2503C84.8573 71.6861 93 57.2832 93 48V53.5Z" fill="#FE1004"/>
  </svg>
  