<svg width="17" height="19" viewBox="0 0 17 19" fill="none" xmlns="http://www.w3.org/2000/svg">
  <path
    d="M2.5 19V18L4 17C3.01667 17 2.1875 16.6625 1.5125 15.9875C0.8375 15.3125 0.5 14.4833 0.5 13.5V4C0.5 2.61667 1.14167 1.60417 2.425 0.9625C3.70833 0.320833 5.73333 0 8.5 0C11.3667 0 13.4167 0.308333 14.65 0.925C15.8833 1.54167 16.5 2.56667 16.5 4V13.5C16.5 14.4833 16.1625 15.3125 15.4875 15.9875C14.8125 16.6625 13.9833 17 13 17L14.5 18V19H2.5ZM2.5 8H7.5V5H2.5V8ZM9.5 8H14.5V5H9.5V8ZM5 14C5.41667 14 5.77083 13.8542 6.0625 13.5625C6.35417 13.2708 6.5 12.9167 6.5 12.5C6.5 12.0833 6.35417 11.7292 6.0625 11.4375C5.77083 11.1458 5.41667 11 5 11C4.58333 11 4.22917 11.1458 3.9375 11.4375C3.64583 11.7292 3.5 12.0833 3.5 12.5C3.5 12.9167 3.64583 13.2708 3.9375 13.5625C4.22917 13.8542 4.58333 14 5 14ZM12 14C12.4167 14 12.7708 13.8542 13.0625 13.5625C13.3542 13.2708 13.5 12.9167 13.5 12.5C13.5 12.0833 13.3542 11.7292 13.0625 11.4375C12.7708 11.1458 12.4167 11 12 11C11.5833 11 11.2292 11.1458 10.9375 11.4375C10.6458 11.7292 10.5 12.0833 10.5 12.5C10.5 12.9167 10.6458 13.2708 10.9375 13.5625C11.2292 13.8542 11.5833 14 12 14ZM4 15H13C13.4333 15 13.7917 14.8583 14.075 14.575C14.3583 14.2917 14.5 13.9333 14.5 13.5V10H2.5V13.5C2.5 13.9333 2.64167 14.2917 2.925 14.575C3.20833 14.8583 3.56667 15 4 15ZM8.5 2C7.06667 2 5.87917 2.08333 4.9375 2.25C3.99583 2.41667 3.33333 2.66667 2.95 3H14.15C13.85 2.66667 13.2292 2.41667 12.2875 2.25C11.3458 2.08333 10.0833 2 8.5 2Z"
    fill="white" />
</svg>
  